<svg width="361" height="361" viewBox="0 0 361 361" fill="none" xmlns="http://www.w3.org/2000/svg">
<path d="M308.354 315.875H52.6458C36.0549 315.875 22.5625 302.383 22.5625 285.792V75.2083C22.5625 58.6174 36.0549 45.125 52.6458 45.125H308.354C324.945 45.125 338.438 58.6174 338.438 75.2083V285.792C338.438 302.383 324.945 315.875 308.354 315.875Z" fill="#FFC107"/>
<path d="M276.354 75.2083H84.6458C73.4448 75.2083 67.8443 75.2083 63.566 77.3882C59.8028 79.3057 56.7432 82.3653 54.8257 86.1285C52.6458 90.4068 52.6458 96.0073 52.6458 107.208V253.792C52.6458 264.993 52.6458 270.593 54.8257 274.871C56.7432 278.635 59.8028 281.694 63.566 283.612C67.8443 285.792 73.4448 285.792 84.6458 285.792H276.354C287.555 285.792 293.156 285.792 297.434 283.612C301.197 281.694 304.257 278.635 306.174 274.871C308.354 270.593 308.354 264.993 308.354 253.792V107.208C308.354 96.0073 308.354 90.4068 306.174 86.1285C304.257 82.3653 301.197 79.3057 297.434 77.3882C293.156 75.2083 287.555 75.2083 276.354 75.2083Z" fill="#388E3C"/>
<g clip-path="url(#clip0_1_2)">
<path d="M178.845 95.5C225.981 95.5 264.258 133.619 264.258 180.533C264.258 227.446 225.982 265.5 178.845 265.5C131.709 265.5 93.5001 227.448 93.5 180.533C93.5 133.617 131.711 95.5002 178.845 95.5ZM178.845 104.919C136.868 104.919 102.906 138.723 102.906 180.533C102.906 222.343 136.868 256.147 178.845 256.147C220.822 256.147 254.784 222.343 254.784 180.533C254.784 138.723 220.822 104.919 178.845 104.919Z" fill="white" stroke="white" stroke-width="3"/>
<path d="M178.734 136.098C182.721 136.098 186.096 139.319 186.096 143.305V194.558L186.095 194.583L185.821 203.213L188.643 200.266L202.763 185.47C204.137 183.954 206.074 183.214 207.913 183.214C211.682 183.214 214.741 186.021 214.741 189.889C214.741 191.928 213.824 193.473 212.599 194.769L212.577 194.793L212.552 194.816L184.055 222.406L184.056 222.407C183.227 223.233 182.392 223.84 181.486 224.231C180.571 224.626 179.662 224.768 178.734 224.768C176.865 224.768 175.158 224.14 173.496 222.423L144.917 194.817L144.901 194.802C143.549 193.455 142.727 191.896 142.727 189.889C142.727 186.057 145.615 183.214 149.49 183.214C151.283 183.214 153.3 183.924 154.636 185.468L168.825 200.265L168.826 200.266L171.679 203.247L171.439 194.577L171.438 194.555V143.305C171.438 139.33 174.803 136.098 178.734 136.098Z" fill="white" stroke="white" stroke-width="3"/>
</g>
<defs>
<clipPath id="clip0_1_2">
<rect width="176" height="173" fill="white" transform="translate(92 94)"/>
</clipPath>
</defs>
</svg>
